<svg width="38" height="31" viewBox="0 0 38 31" fill="none" xmlns="http://www.w3.org/2000/svg">
<path fill-rule="evenodd" clip-rule="evenodd" d="M17.6899 17.0927L9.57115 3.44894C7.74617 0.38203 3.66871 -0.692405 0.50085 1.02912C0.0256998 1.28733 -0.142193 1.87206 0.131617 2.3321L13.2637 24.4006L17.6899 17.0927ZM14.3826 26.2806L15.6015 28.3293C16.3238 29.5431 17.6486 30.2213 19 30.2088C20.3513 30.2213 21.6761 29.5431 22.3984 28.3293L37.8684 2.3321C38.1422 1.87206 37.9743 1.28733 37.499 1.02912C34.8096 -0.432427 31.4645 0.121279 29.3989 2.19856L15.342 25.4079C15.1056 25.7979 14.7686 26.0934 14.3826 26.2806Z" fill="#2B39AE"/>
</svg>
