<svg width="51" height="52" viewBox="0 0 51 52" fill="none" xmlns="http://www.w3.org/2000/svg">
<path d="M25.5 1.20898C38.7548 1.20898 49.5 11.9542 49.5 25.209C49.5 38.4638 38.7548 49.209 25.5 49.209C12.2452 49.209 1.5 38.4638 1.5 25.209C1.5 11.9542 12.2452 1.20898 25.5 1.20898Z" fill="white" stroke="#2B39AE"/>
<path d="M50 25.209C50 11.678 39.031 0.708984 25.5 0.708984C11.969 0.708984 1 11.678 1 25.209C1 38.74 11.969 49.709 25.5 49.709C39.031 49.709 50 38.74 50 25.209Z" stroke="#2B39AE" stroke-width="0.5"/>
<path d="M13.6348 30.2139C13.9853 30.2139 14.2695 30.4981 14.2695 30.8486V33.6562C14.2695 35.1909 15.5181 36.4395 17.0527 36.4395H19.8604C20.2109 36.4395 20.4951 36.7237 20.4951 37.0742C20.4951 37.4248 20.2109 37.709 19.8604 37.709H17.0527C14.8181 37.709 13 35.8909 13 33.6562V30.8486C13 30.4981 13.2842 30.2139 13.6348 30.2139ZM37.3652 30.2139C37.7158 30.2139 38 30.4981 38 30.8486V33.6562C38 35.8909 36.1819 37.709 33.9473 37.709H31.1396C30.7891 37.709 30.5049 37.4248 30.5049 37.0742C30.5049 36.7237 30.7891 36.4395 31.1396 36.4395H33.9473C35.4819 36.4395 36.7305 35.1909 36.7305 33.6562V30.8486C36.7305 30.4981 37.0147 30.2139 37.3652 30.2139ZM28.9863 30.2178C29.2537 29.9711 29.67 29.9878 29.917 30.2549C30.164 30.5223 30.1482 30.9395 29.8809 31.1865C28.6849 32.2911 27.129 32.8994 25.5 32.8994C23.871 32.8994 22.3151 32.2912 21.1191 31.1865C20.8518 30.9396 20.8352 30.5223 21.082 30.2549C21.329 29.9875 21.7462 29.971 22.0137 30.2178C22.9653 31.0968 24.2036 31.5811 25.5 31.5811C26.7964 31.581 28.0348 31.0968 28.9863 30.2178ZM26.1592 21.4736C26.5232 21.4736 26.8184 21.7688 26.8184 22.1328V26.8203C26.8184 27.7492 26.0627 28.5049 25.1338 28.5049H24.5967C24.2326 28.5049 23.9375 28.2098 23.9375 27.8457C23.9375 27.4816 24.2326 27.1865 24.5967 27.1865H25.1338C25.3357 27.1865 25.5 27.0222 25.5 26.8203V22.1328C25.5 21.7688 25.7951 21.4736 26.1592 21.4736ZM20.4092 21.4736C20.7528 21.4736 21.032 21.7521 21.0322 22.0957V23.9756C21.0322 24.3194 20.753 24.5986 20.4092 24.5986C20.0656 24.5984 19.7871 24.3192 19.7871 23.9756V22.0957C19.7874 21.7523 20.0657 21.4739 20.4092 21.4736ZM30.7363 21.4736C31.08 21.4736 31.3591 21.7521 31.3594 22.0957V23.9756C31.3594 24.3194 31.0802 24.5986 30.7363 24.5986C30.3927 24.5984 30.1143 24.3192 30.1143 23.9756V22.0957C30.1145 21.7523 30.3929 21.4739 30.7363 21.4736ZM19.8604 12.709C20.2109 12.709 20.4951 12.9932 20.4951 13.3438C20.4951 13.6943 20.2109 13.9785 19.8604 13.9785H17.0527C15.5181 13.9785 14.2695 15.2271 14.2695 16.7617V19.5693C14.2695 19.9199 13.9853 20.2041 13.6348 20.2041C13.2842 20.2041 13 19.9199 13 19.5693V16.7617C13 14.527 14.8181 12.709 17.0527 12.709H19.8604ZM33.9473 12.709C36.1819 12.709 38 14.527 38 16.7617V19.5693C38 19.9199 37.7158 20.2041 37.3652 20.2041C37.0147 20.2041 36.7305 19.9199 36.7305 19.5693V16.7617C36.7305 15.2271 35.4819 13.9785 33.9473 13.9785H31.1396C30.7891 13.9785 30.5049 13.6943 30.5049 13.3438C30.5049 12.9932 30.7891 12.709 31.1396 12.709H33.9473Z" fill="#2B39AE"/>
</svg>
