<svg width="51" height="50" viewBox="0 0 51 50" fill="none" xmlns="http://www.w3.org/2000/svg">
<path d="M25.5 1.20898C38.7548 1.20898 49.5 11.9542 49.5 25.209C49.5 38.4638 38.7548 49.209 25.5 49.209C12.2452 49.209 1.5 38.4638 1.5 25.209C1.5 11.9542 12.2452 1.20898 25.5 1.20898Z" fill="white" stroke="#2B39AE"/>
<path d="M50 25.209C50 11.678 39.031 0.708984 25.5 0.708984C11.969 0.708984 1 11.678 1 25.209C1 38.74 11.969 49.709 25.5 49.709C39.031 49.709 50 38.74 50 25.209Z" stroke="#2B39AE" stroke-width="0.5"/>
<g clip-path="url(#clip0_2020_29750)">
<path d="M28.092 13.0775C26.3407 12.6407 24.4979 12.5782 22.7047 12.9653C22.5662 12.9953 22.4781 13.1318 22.508 13.2704C22.5379 13.409 22.6745 13.4971 22.8131 13.4672C24.5303 13.0965 26.2993 13.1576 27.9819 13.5793C32.0057 14.5878 35.3551 17.6132 36.6308 21.5652C37.1241 23.0935 37.3337 24.7209 37.3756 26.4264C37.3791 26.5682 37.4968 26.6802 37.6386 26.6767C37.7803 26.6733 37.8924 26.5555 37.8889 26.4138C37.8463 24.6849 37.6343 23.0156 37.1288 21.4368C35.804 17.2994 32.3034 14.128 28.092 13.0775Z" fill="#2B39AE"/>
<path d="M21.402 13.8542C21.5387 13.8165 21.6189 13.6751 21.5812 13.5384C21.5435 13.4018 21.4022 13.3215 21.2655 13.3592C19.3902 13.8766 16.7523 15.6641 15.122 18.0522C15.1214 18.0531 15.1208 18.054 15.1201 18.055C13.6887 20.2122 12.7913 22.9232 13.0418 25.5538C13.0421 25.5563 13.0424 25.5588 13.0427 25.5613C13.1027 26.0417 13.2035 26.5211 13.3044 27.0011C13.517 28.0121 13.7301 29.0256 13.564 30.0552C13.5414 30.1952 13.6366 30.3269 13.7765 30.3495C13.9165 30.3721 14.0482 30.2769 14.0708 30.137C14.2444 29.0607 14.0289 28.011 13.8132 26.961C13.7135 26.4754 13.6138 25.9897 13.5526 25.5014C13.3169 23.0157 14.1657 20.4225 15.547 18.3402C17.1153 16.0439 19.6548 14.3362 21.402 13.8542Z" fill="#2B39AE"/>
<path d="M24.7706 14.4277C27.9934 14.2309 31.2156 15.5462 33.3796 18.066C33.4719 18.1735 33.4596 18.3356 33.3521 18.428C33.2445 18.5203 33.0825 18.508 32.9901 18.4005C30.9322 16.0042 27.8661 14.7525 24.8003 14.9402C24.7992 14.9403 24.7981 14.9403 24.797 14.9404C20.9201 15.128 17.2892 17.7581 15.9537 21.4435C15.9054 21.5768 15.7582 21.6457 15.6249 21.5974C15.4917 21.5491 15.4228 21.4019 15.4711 21.2686C16.878 17.3861 20.6905 14.6258 24.7706 14.4277Z" fill="#2B39AE"/>
<path d="M34.1616 19.1874C34.0826 19.0697 33.9231 19.0384 33.8054 19.1175C33.6877 19.1965 33.6564 19.356 33.7354 19.4737C34.935 21.2599 35.4311 23.2037 35.6272 25.5104C35.6392 25.6517 35.7634 25.7565 35.9047 25.7445C36.0459 25.7325 36.1507 25.6082 36.1387 25.4669C35.9383 23.1098 35.4268 21.0713 34.1616 19.1874Z" fill="#2B39AE"/>
<path d="M35.9671 26.5568C36.1086 26.5479 36.2305 26.6555 36.2393 26.797C36.336 28.3449 36.3369 30.0962 36.1657 31.3904C36.1471 31.5309 36.0181 31.6298 35.8776 31.6112C35.737 31.5926 35.6382 31.4636 35.6567 31.323C35.8218 30.0756 35.8227 28.3615 35.7269 26.829C35.7181 26.6875 35.8256 26.5656 35.9671 26.5568Z" fill="#2B39AE"/>
<path d="M15.5661 22.6868C15.5994 22.549 15.5146 22.4103 15.3768 22.377C15.239 22.3438 15.1003 22.4285 15.067 22.5663C14.8786 23.3467 14.7808 24.1483 14.777 24.9507C14.773 25.7777 14.9272 26.585 15.0814 27.3925C15.2076 28.0532 15.3339 28.714 15.3736 29.386C15.4257 30.2688 15.24 31.1528 14.9192 31.9942C14.8687 32.1267 14.9351 32.275 15.0676 32.3256C15.2 32.3761 15.3484 32.3096 15.3989 32.1772C15.738 31.2878 15.9436 30.3298 15.8861 29.3557C15.8466 28.6883 15.7204 28.0313 15.5942 27.3746C15.4403 26.5732 15.2864 25.7722 15.2903 24.9532C15.294 24.1907 15.387 23.4287 15.5661 22.6868Z" fill="#2B39AE"/>
<path d="M22.3018 16.9824C22.3546 17.114 22.2908 17.2635 22.1592 17.3163C19.498 18.385 17.4995 20.7967 17.0919 23.6407C16.9215 24.8289 17.1055 26.0058 17.2895 27.1824C17.3931 27.845 17.4967 28.5076 17.537 29.1719C17.6243 30.6125 17.4602 32.1949 16.5227 33.6346C16.4453 33.7534 16.2863 33.787 16.1675 33.7096C16.0487 33.6323 16.0151 33.4732 16.0925 33.3544C16.9467 32.0427 17.1083 30.5857 17.0245 29.203C16.9837 28.5289 16.8807 27.8587 16.7778 27.1889C16.5933 25.9872 16.4089 24.7869 16.5837 23.5678C17.019 20.5313 19.1473 17.9726 21.9679 16.8399C22.0995 16.7871 22.2489 16.8509 22.3018 16.9824Z" fill="#2B39AE"/>
<path d="M31.3134 18.4439C29.2139 16.4775 26.171 15.7912 23.4055 16.3978C23.2671 16.4281 23.1794 16.565 23.2098 16.7035C23.2402 16.842 23.377 16.9296 23.5155 16.8992C26.1342 16.3249 28.9995 16.9801 30.9624 18.8186C32.617 20.3682 33.5777 22.6231 33.8292 25.0832C33.8436 25.2242 33.9696 25.3268 34.1107 25.3124C34.2517 25.298 34.3544 25.172 34.3399 25.0309C34.0788 22.4764 33.0775 20.0962 31.3134 18.4439Z" fill="#2B39AE"/>
<path d="M34.2862 26.2535C34.4273 26.239 34.5533 26.3416 34.5678 26.4826C34.8116 28.8563 34.7065 31.4201 34.3385 33.9002C34.3177 34.0405 34.1871 34.1373 34.0469 34.1165C33.9067 34.0957 33.8098 33.9651 33.8306 33.8249C34.1936 31.3792 34.2958 28.8589 34.0571 26.535C34.0426 26.394 34.1452 26.2679 34.2862 26.2535Z" fill="#2B39AE"/>
<path d="M25.3367 17.9259C21.4031 17.9259 18.2071 21.0641 18.2071 24.9441C18.2071 25.3585 18.2438 25.7646 18.314 26.1595C18.3387 26.2991 18.472 26.3922 18.6116 26.3674C18.7512 26.3426 18.8442 26.2094 18.8194 26.0698C18.7545 25.7042 18.7205 25.3281 18.7205 24.9441C18.7205 21.3556 21.6787 18.4393 25.3367 18.4393C26.9898 18.4393 28.5001 19.0351 29.6594 20.0196C29.7674 20.1114 29.9294 20.0982 30.0212 19.9901C30.113 19.882 30.0998 19.72 29.9917 19.6283C28.7425 18.5674 27.1152 17.9259 25.3367 17.9259Z" fill="#2B39AE"/>
<path d="M30.5669 20.5854C30.6692 20.4872 30.8317 20.4906 30.9298 20.593C32.0627 21.7743 32.4253 23.631 32.6652 25.1892C32.9355 26.9444 32.9768 28.6567 32.9768 29.4506C32.9768 29.5923 32.8619 29.7073 32.7201 29.7073C32.5783 29.7073 32.4634 29.5923 32.4634 29.4506C32.4634 28.6695 32.4225 26.9862 32.1578 25.2673C31.9351 23.8208 31.6139 22.0481 30.5593 20.9483C30.4611 20.846 30.4645 20.6835 30.5669 20.5854Z" fill="#2B39AE"/>
<path d="M32.9116 30.9207C32.9229 30.7794 32.8174 30.6557 32.6761 30.6444C32.5348 30.6331 32.4111 30.7385 32.3998 30.8799C32.2738 32.4611 32.109 34.0406 31.7748 35.4996C31.7431 35.6378 31.8295 35.7755 31.9677 35.8071C32.1059 35.8388 32.2436 35.7524 32.2752 35.6142C32.6183 34.1167 32.7852 32.5061 32.9116 30.9207Z" fill="#2B39AE"/>
<path d="M18.7271 27.1043C18.8662 27.0769 19.0012 27.1675 19.0286 27.3066C19.5714 30.0628 19.1964 32.5666 17.7591 34.7598C17.6814 34.8784 17.5223 34.9115 17.4037 34.8338C17.2851 34.7561 17.252 34.597 17.3297 34.4784C18.6821 32.4148 19.046 30.0521 18.5249 27.4058C18.4975 27.2667 18.588 27.1317 18.7271 27.1043Z" fill="#2B39AE"/>
<path d="M25.3367 19.5961C22.7833 19.5961 20.2784 21.5727 20.0227 24.0568C19.9108 25.1443 20.068 26.2156 20.2253 27.2872C20.3627 28.223 20.5001 29.1591 20.4583 30.1067C20.3629 32.2753 19.7266 34.0655 18.6332 35.5399C18.5488 35.6537 18.5727 35.8145 18.6865 35.899C18.8004 35.9834 18.9612 35.9595 19.0456 35.8457C20.2052 34.2819 20.8717 32.391 20.9712 30.1293C21.0128 29.186 20.875 28.2529 20.7372 27.3203C20.5797 26.254 20.4223 25.1884 20.5334 24.1094C20.758 21.9271 23.0042 20.1095 25.3367 20.1095C26.4247 20.1095 29.2395 20.6986 30.1349 23.6154C30.696 25.4433 30.849 27.917 30.7131 30.3203C30.5772 32.7232 30.1545 35.0215 29.5861 36.4952C29.535 36.6275 29.6009 36.7761 29.7332 36.8271C29.8654 36.8781 30.014 36.8123 30.0651 36.68C30.6598 35.1381 31.0881 32.7817 31.2257 30.3493C31.3632 27.9172 31.2121 25.3749 30.6257 23.4648C29.6318 20.227 26.5161 19.5961 25.3367 19.5961Z" fill="#2B39AE"/>
<path d="M21.3864 34.7602C21.5051 34.8377 21.5386 34.9967 21.4611 35.1155C21.3019 35.3595 21.1619 35.6149 21.0219 35.8702C20.8818 36.1256 20.7418 36.381 20.5826 36.6251C20.5051 36.7439 20.3461 36.7773 20.2273 36.6999C20.1086 36.6224 20.0751 36.4634 20.1526 36.3446C20.3117 36.1006 20.4518 35.8452 20.5918 35.5899C20.7318 35.3345 20.8719 35.0791 21.0311 34.835C21.1086 34.7162 21.2676 34.6828 21.3864 34.7602Z" fill="#2B39AE"/>
<path d="M23.5844 22.2608C23.7022 22.1819 23.7338 22.0225 23.655 21.9047C23.5762 21.7868 23.4168 21.7552 23.2989 21.834C22.2825 22.5139 21.6588 23.4488 21.6588 24.8184C21.6588 25.634 21.8033 26.3006 21.9515 26.9843C22.1732 28.0075 22.3236 29.0284 22.2966 30.0793C22.2638 31.3554 22.0141 32.5215 21.5341 33.6324C21.4779 33.7625 21.5378 33.9136 21.668 33.9699C21.7981 34.0261 21.9492 33.9662 22.0054 33.836C22.5129 32.6615 22.7754 31.4303 22.8098 30.0925C22.8379 29.0005 22.6833 27.9391 22.4534 26.8758C22.3048 26.1891 22.1722 25.5759 22.1722 24.8184C22.1722 23.645 22.6885 22.86 23.5844 22.2608Z" fill="#2B39AE"/>
<path d="M24.5863 21.3588C25.6515 21.1417 26.7978 21.41 27.6415 22.0929C29.1485 23.3127 29.349 25.5372 29.5114 27.3398L29.5196 27.4316C29.7295 29.7553 29.4893 32.0122 29.0053 34.2788C28.9757 34.4174 28.8393 34.5058 28.7007 34.4762C28.562 34.4466 28.4736 34.3102 28.5032 34.1716C28.9799 31.939 29.2123 29.7357 29.0083 27.4778C29.0016 27.4031 28.9949 27.3273 28.9881 27.2505L28.988 27.2494C28.8437 25.6205 28.663 23.5802 27.3185 22.492C26.5971 21.9081 25.6078 21.6745 24.6888 21.8619C24.5499 21.8902 24.4143 21.8005 24.386 21.6616C24.3577 21.5227 24.4474 21.3872 24.5863 21.3588Z" fill="#2B39AE"/>
<path d="M28.6425 35.5561C28.6775 35.4187 28.5945 35.279 28.4571 35.244C28.3197 35.209 28.18 35.292 28.145 35.4294C27.9898 36.039 27.7507 36.5892 27.4475 37.0957C27.3747 37.2174 27.4143 37.375 27.5359 37.4478C27.6576 37.5206 27.8152 37.481 27.888 37.3594C28.2148 36.8135 28.4741 36.2174 28.6425 35.5561Z" fill="#2B39AE"/>
<path d="M27.3872 31.8309C27.528 31.8476 27.6287 31.9752 27.612 32.116C27.3696 34.1647 26.8222 35.9919 25.944 37.5767C25.8753 37.7007 25.719 37.7455 25.595 37.6768C25.471 37.608 25.4262 37.4518 25.4949 37.3278C26.3354 35.8112 26.8661 34.0503 27.1022 32.0557C27.1188 31.9149 27.2465 31.8143 27.3872 31.8309Z" fill="#2B39AE"/>
<path d="M27.3343 24.6838C27.1564 23.7329 26.3402 23.0055 25.3494 23.0055C24.0078 23.0055 23.0664 24.3579 23.3982 25.6161C23.9594 27.8371 24.0516 29.9776 23.6716 32.0392L23.6713 32.0408C23.3416 33.8918 22.7084 35.557 21.8447 36.968C21.7707 37.0889 21.8087 37.247 21.9296 37.321C22.0505 37.395 22.2086 37.357 22.2826 37.2361C23.1816 35.7673 23.8364 34.0414 24.1766 32.1315C24.5712 29.9904 24.4734 27.7748 23.8956 25.489L23.8949 25.4863C23.6461 24.5451 24.3396 23.5189 25.3494 23.5189C26.0782 23.5189 26.6935 24.055 26.8294 24.7765C27.203 26.9438 27.3976 28.9536 27.2591 30.684C27.2478 30.8253 27.3531 30.949 27.4945 30.9604C27.6358 30.9717 27.7595 30.8663 27.7708 30.725C27.9145 28.9314 27.7117 26.8721 27.335 24.6874C27.3348 24.6862 27.3346 24.685 27.3343 24.6838Z" fill="#2B39AE"/>
<path d="M24.5835 35.8016C24.7096 35.8664 24.7593 36.0212 24.6945 36.1473L24.0143 37.4709C23.9495 37.597 23.7947 37.6467 23.6686 37.5819C23.5425 37.5171 23.4928 37.3624 23.5576 37.2363L24.2378 35.9126C24.3026 35.7865 24.4574 35.7368 24.5835 35.8016Z" fill="#2B39AE"/>
<path d="M25.5404 24.9313C25.5079 24.7933 25.3698 24.7077 25.2318 24.7402C25.0937 24.7726 25.0081 24.9107 25.0406 25.0488C25.9062 28.7337 25.7873 31.9694 24.7329 34.7258C24.6823 34.8582 24.7485 35.0066 24.881 35.0572C25.0134 35.1079 25.1618 35.0416 25.2124 34.9092C26.3118 32.0352 26.4236 28.6911 25.5404 24.9313Z" fill="#2B39AE"/>
</g>
<defs>
<clipPath id="clip0_2020_29750">
<rect width="25" height="25" fill="white" transform="translate(13 12.709)"/>
</clipPath>
</defs>
</svg>
