<svg width="124" height="100" viewBox="0 0 124 100" fill="none" xmlns="http://www.w3.org/2000/svg">
<path fill-rule="evenodd" clip-rule="evenodd" d="M57.7248 56.2789L31.2322 10.7999C25.277 0.576818 11.9716 -3.00463 1.63435 2.73379C0.0838624 3.59447 -0.463998 5.54357 0.429487 7.07706L43.2817 80.6388L57.7248 56.2789ZM46.9325 86.9055L50.9101 93.7343C53.2673 97.7805 57.5902 100.041 61.9999 99.9994C66.4096 100.041 70.7325 97.7805 73.0896 93.7343L123.57 7.07706C124.464 5.54357 123.916 3.59447 122.365 2.73379C113.589 -2.13804 102.674 -0.292352 95.9333 6.6319L50.0633 83.9964C49.2921 85.2964 48.1922 86.2812 46.9325 86.9055Z" fill="#06AFF2"/>
</svg>
