<svg width="231" height="60" viewBox="0 0 231 60" fill="none" xmlns="http://www.w3.org/2000/svg">
<path fill-rule="evenodd" clip-rule="evenodd" d="M23.5648 42.151L12.7498 23.5843C10.3187 19.4108 4.88711 17.9487 0.667185 20.2914C0.0342348 20.6427 -0.189416 21.4384 0.175328 22.0645L17.6687 52.0958L23.5648 42.151ZM19.1591 54.6541L20.7829 57.442C21.7451 59.0938 23.5098 60.0167 25.31 59.9997C27.1102 60.0167 28.8749 59.0938 29.8371 57.442L50.4447 22.0645C50.8095 21.4384 50.5859 20.6427 49.9527 20.2914C46.3701 18.3024 41.914 19.0559 39.1625 21.8827L20.4371 53.4665C20.1223 53.9972 19.6733 54.3993 19.1591 54.6541Z" fill="#06AFF2"/>
<path fill-rule="evenodd" clip-rule="evenodd" d="M66.0623 21.031C66.0623 20.0061 65.2327 19.1753 64.2092 19.1753H58.65C57.6267 19.1753 56.7969 20.0061 56.7969 21.031V41.7526C56.7969 51.8304 64.9554 60 75.0189 60C85.0827 60 93.2409 51.8304 93.2409 41.7526V21.031C93.2409 20.0061 92.4113 19.1753 91.3878 19.1753H85.5197C84.4965 19.1753 83.6666 20.0061 83.6666 21.031V42.2165C83.6666 47.0846 79.726 51.031 74.8645 51.031C70.0032 51.031 66.0623 47.0846 66.0623 42.2165V21.031Z" fill="#F6F8FE"/>
<path fill-rule="evenodd" clip-rule="evenodd" d="M99.418 34.6392C99.418 26.0987 106.332 19.1753 114.86 19.1753H121.655C122.679 19.1753 123.508 20.0061 123.508 21.031V26.2742C123.508 27.299 122.679 28.1299 121.655 28.1299H115.337C111.073 28.1299 107.616 31.5916 107.616 35.8618V58.1444C107.616 59.1693 106.786 60 105.763 60H101.271C100.248 60 99.418 59.1693 99.418 58.1444V34.6392Z" fill="#F6F8FE"/>
<path fill-rule="evenodd" clip-rule="evenodd" d="M146.982 19.1753C135.724 19.1753 126.598 28.3142 126.598 39.5877C126.598 50.7579 135.558 59.8324 146.673 59.9979V60H146.68C147.197 59.9997 147.709 59.9805 148.216 59.9425C148.949 59.8874 149.67 59.7937 150.379 59.6635C155.57 58.7088 160.073 55.7846 163.087 51.6934C163.786 50.7449 163.058 49.4846 161.881 49.4846H155.029C154.68 49.4846 154.343 49.6058 154.061 49.8118C152.899 50.6598 151.589 51.317 150.178 51.7373C149.536 51.9285 148.874 52.0704 148.194 52.1592C148.193 52.1595 148.191 52.1598 148.19 52.1601C147.692 52.2248 147.186 52.261 146.673 52.2671V52.2644C139.822 52.1001 134.319 46.4873 134.319 39.5877C134.319 32.5844 139.988 26.9072 146.982 26.9072C152.956 26.9072 157.965 31.0506 159.297 36.6245C159.016 36.5403 158.718 36.4949 158.409 36.4949H142.349C140.643 36.4949 139.26 37.8795 139.26 39.5877V41.134C139.26 42.8422 140.643 44.2268 142.349 44.2268H153.159H158.409C158.534 44.2268 158.658 44.2194 158.779 44.2049L158.77 44.2268H166.837C167.183 42.7364 167.366 41.1835 167.366 39.5877C167.366 28.3142 158.239 19.1753 146.982 19.1753Z" fill="#F6F8FE"/>
<path d="M181.573 0H175.396C174.373 0 173.543 0.830811 173.543 1.85567V58.1443C173.543 59.1692 174.373 60 175.396 60H181.573C182.596 60 183.426 59.1692 183.426 58.1443V1.85567C183.426 0.830811 182.596 0 181.573 0Z" fill="#F6F8FE"/>
<path d="M215.199 39.8571C215.199 42.6481 212.939 44.9107 210.152 44.9107C207.365 44.9107 205.105 42.6481 205.105 39.8571C205.105 37.0659 207.365 34.8032 210.152 34.8032C212.939 34.8032 215.199 37.0659 215.199 39.8571Z" fill="#06AFF2"/>
<path fill-rule="evenodd" clip-rule="evenodd" d="M208.584 19.3108C198.134 20.1878 189.602 28.9639 189.602 39.6554C189.602 50.3472 197.81 59.1186 208.26 59.9957V51.9069C202.254 51.0666 197.632 45.9016 197.632 39.6554C197.632 33.4092 202.578 28.2371 208.584 27.3967V19.3108ZM211.658 51.9143C217.69 51.0969 222.339 45.9198 222.339 39.6554C222.339 33.391 217.69 28.214 211.658 27.3967V19.3108C222.133 20.1625 230.369 28.9458 230.369 39.6554C230.369 50.3651 222.133 59.1483 211.658 60.0001V51.9143Z" fill="#F6F8FE"/>
</svg>
